<svg id="Layer_2" data-name="Layer 2" xmlns="http://www.w3.org/2000/svg" viewBox="0 0 529.24 530.78"><defs><style>.cls-1,.cls-8{fill:#231f20;}.cls-2,.cls-6{fill:#e4bd21;}.cls-3{fill:#e39925;}.cls-4{fill:#e19426;}.cls-5{fill:#e17d26;}.cls-5,.cls-6{stroke:#231f20;stroke-miterlimit:10;stroke-width:14.17px;}.cls-7{fill:#e07d26;}.cls-8{font-size:171.23px;font-family:ArialRoundedMTBold, Arial Rounded MT Bold;}</style></defs><path class="cls-1" d="M530.26,149.61c21.84-2.19,53.94-6.24,58.68-32.84,5-27.88-18.75-50.72-45-53.52-14.58-1.56-28.83,3.53-40.37,12.23C492.29,84,482.31,95.89,482,110.63c-.27,12.8,7.46,23.66,17.66,30.66,11,7.53,24.75,8.27,37.61,8.55,18.14.41,37,.35,54.24,6.91,12,4.57,17.36,14.9,23.89,25.18,5.16,8.12,18.15.61,13-7.58S618.3,157,610.65,150.74c-10-8.19-22.9-11.44-35.4-13.39-14-2.18-28-2.12-42.14-2.62-10-.36-20.32-1.36-28.2-8.2-19.32-16.77,2.27-40,20.32-46.19,19.09-6.59,43.62,2,48.65,23.11,6.15,25.74-25.55,29.34-43.62,31.16-4,.4-7.5,3.15-7.5,7.5,0,3.74,3.44,7.9,7.5,7.5Z" transform="translate(-134.65 -23.19)"/><path class="cls-2" d="M466.75,129.05c-40.46-1.8-70.76,16.69-85,25.36C292.87,208.66,206,419,279,466.23c58.34,37.71,117.87,27.23,162.35,29.83,46.92,2.75,148,14.93,190.24-32.23,60.69-67.78.57-247.94-92.58-309.42C503.05,130.66,466.75,129.05,466.75,129.05Z" transform="translate(-134.65 -23.19)"/><path class="cls-1" d="M466.75,121.55c-43.78-1.63-86.47,19.2-117.64,49.07-29.92,28.66-52.93,64.95-70.66,102.18-17.6,36.95-31.52,77.29-33.94,118.44-1.85,31.44,4.73,65.28,33.22,83,26.1,16.25,55.68,24.56,86.11,27.4,25.19,2.35,50.43.53,75.65,1.79,41.87,2.1,83.51,6.47,125.24-.33,20.86-3.4,42.27-9.81,59.43-22.57,14.9-11.09,25.17-26.13,31.45-43.5,13.36-36.93,8.69-79.43-.89-116.65-11.12-43.19-30.83-85.05-58-120.5-28.82-37.64-66.79-67.39-114.37-76.29a114.33,114.33,0,0,0-15.63-2.07c-9.65-.46-9.62,14.54,0,15a72.81,72.81,0,0,1,12.67,1.73,156.12,156.12,0,0,1,34,10.64c20.23,9.1,37.69,22.49,53,38.43,28.93,30.12,50.33,67.85,64.5,107,13,35.88,21.67,75.93,16.23,114.18-2.21,15.61-6.95,30.77-15.91,43.77-10,14.55-26.26,24.21-43.14,29.83-39.39,13.1-82.82,10.75-123.64,8-19.72-1.33-39.25-2.05-59-2-26.35.05-52.74-.9-78.24-8.19a164.4,164.4,0,0,1-41.09-18.09c-5.52-3.39-10.77-7.64-14.1-12.19-7.84-10.71-11.24-23.76-12.34-36.73-3.06-36.16,7.43-73.16,20.44-106.53,14.52-37.27,34.61-73.45,60.23-104.27,23-27.64,51.95-50.54,86.93-60.72a123.56,123.56,0,0,1,39.46-4.84C476.41,136.9,476.39,121.9,466.75,121.55Z" transform="translate(-134.65 -23.19)"/><path class="cls-3" d="M539.05,154.41c-36-23.75-72.3-25.36-72.3-25.36a124.16,124.16,0,0,0-23.54,1.2c13.29,2.16,53,7.39,77.56,23.08,92.64,59.09,155.71,234.24,77.83,310.06-25.41,24.75-64.36,34.25-104.13,35.81,48.62,1.61,107.46-2.2,137.16-35.37C692.32,396.05,632.2,215.89,539.05,154.41Z" transform="translate(-134.65 -23.19)"/><path class="cls-1" d="M466.75,121.55c-43.78-1.63-86.47,19.2-117.64,49.07-29.92,28.66-52.93,64.95-70.66,102.18-17.6,36.95-31.52,77.29-33.94,118.44-1.85,31.44,4.73,65.28,33.22,83,26.1,16.25,55.68,24.56,86.11,27.4,25.19,2.35,50.43.53,75.65,1.79,41.87,2.1,83.51,6.47,125.24-.33,20.86-3.4,42.27-9.81,59.43-22.57,14.9-11.09,25.17-26.13,31.45-43.5,13.36-36.93,8.69-79.43-.89-116.65-11.12-43.19-30.83-85.05-58-120.5-28.82-37.64-66.79-67.39-114.37-76.29a114.33,114.33,0,0,0-15.63-2.07c-9.65-.46-9.62,14.54,0,15a72.81,72.81,0,0,1,12.67,1.73,156.12,156.12,0,0,1,34,10.64c20.23,9.1,37.69,22.49,53,38.43,28.93,30.12,50.33,67.85,64.5,107,13,35.88,21.67,75.93,16.23,114.18-2.21,15.61-6.95,30.77-15.91,43.77-10,14.55-26.26,24.21-43.14,29.83-39.39,13.1-82.82,10.75-123.64,8-19.72-1.33-39.25-2.05-59-2-26.35.05-52.74-.9-78.24-8.19a164.4,164.4,0,0,1-41.09-18.09c-5.52-3.39-10.77-7.64-14.1-12.19-7.84-10.71-11.24-23.76-12.34-36.73-3.06-36.16,7.43-73.16,20.44-106.53,14.52-37.27,34.61-73.45,60.23-104.27,23-27.64,51.95-50.54,86.93-60.72a123.56,123.56,0,0,1,39.46-4.84C476.41,136.9,476.39,121.9,466.75,121.55Z" transform="translate(-134.65 -23.19)"/><path class="cls-2" d="M377.3,37c-12.21,6.82-9.17,62,24.78,91.91,33.14,29.2,90.37,29.56,123.88,0,35.61-31.4,36.2-89.3,25.58-94.31-6.75-3.18-14.67,16.55-34.37,17.59-22.28,1.16-29.51-23.17-50.35-21.58-18.33,1.39-20.08,20.78-40,24C402.19,58.58,386.94,31.64,377.3,37Z" transform="translate(-134.65 -23.19)"/><path class="cls-1" d="M373.52,30.55c-12.82,7.78-10.93,28.88-9.11,41.33,3.1,21.2,12.56,42.05,27.41,57.6,32.35,33.88,90.61,38.25,129.18,12.64,19.23-12.77,32.28-32.5,39-54.39,4.62-15,8-34.38,2.64-49.71-2.29-6.51-7.4-12.56-15.07-10.94-7,1.47-11.63,8.28-17.11,12.29-7.62,5.58-16.87,7.23-25.32,2.48-8-4.48-14.11-11.65-22.46-15.52a31.77,31.77,0,0,0-33.64,3.81C441.13,36.4,435.73,46,424.86,47.38c-10.46,1.34-19.53-5-27.63-10.67-7.09-5-14.93-10.49-23.71-6.16s-1.07,17.22,7.57,13c-.69.33-1.15.21-.58.43,2,.76-.78-.41.49.16.6.27,1.17.61,1.73.93,3.31,1.89,6.35,4.27,9.49,6.43,7.15,4.94,15,9.23,23.67,10.53a37.83,37.83,0,0,0,29.68-8c5.75-4.61,10.21-12.08,17.21-14.9,7.55-3,14.62.76,20.56,5.25,6.92,5.22,13.24,11,21.64,13.72,9.68,3.18,20.41,1.61,29.22-3.3a61,61,0,0,0,10.32-7.63c1.18-1,2.33-2.13,3.51-3.17,1.49-1.32,2-1.1,3-2.33.26-.32-1-.2.07,0a29.82,29.82,0,0,1-3-.36c1.24.33-1.59-.4-.35-.23,1.6.22-3,0-.37-.51a6.55,6.55,0,0,1,.74,1.25c.54,1.72-.54-1.61.11.23a30,30,0,0,1,1,3.74c1,4.8,1,12.77.33,19-1.85,17.77-8.75,36.2-20.28,50-26.49,31.66-76.42,37.31-111.28,16.53-18.71-11.15-30.9-30.18-36.54-50.92a82.64,82.64,0,0,1-3.14-25.59,32.9,32.9,0,0,1,1.52-8.87c.09-.3,1-2.17.17-.55a10.79,10.79,0,0,1,.8-1.5c1.06-1.5-.91,1.31.05-.12s-.56.24.23-.23C389.33,38.5,381.8,25.53,373.52,30.55Z" transform="translate(-134.65 -23.19)"/><path class="cls-1" d="M414.47,96.57l26,55.15,1.17-9.09-41.56,39.16c-7,6.64,3.58,17.23,10.61,10.61l41.56-39.16c2.58-2.44,2.58-6.11,1.17-9.09L427.42,89c-4.11-8.73-17.05-1.12-12.95,7.57Z" transform="translate(-134.65 -23.19)"/><path class="cls-1" d="M466.43,190.1V153.33c0-9.65-15-9.67-15,0V190.1c0,9.65,15,9.66,15,0Z" transform="translate(-134.65 -23.19)"/><path class="cls-1" d="M520.18,178.79,477,142l1.17,9.09,26.38-52.76c4.3-8.6-8.63-16.21-13-7.57l-26.37,52.75c-1.4,2.8-1.44,6.87,1.17,9.09l43.16,36.77c7.31,6.23,18-4.34,10.61-10.61Z" transform="translate(-134.65 -23.19)"/><path class="cls-1" d="M608.86,386.9c-.51-3-.12.8-.15,1.7-.06,1.5-.2,3-.4,4.51a96.36,96.36,0,0,1-2.69,12.29c-2.88,9.91-7.47,19.43-15.45,26.21-9.44,8-21.1,13.47-33,16.79-6.6,1.85-12.45,3.59-19,3.11-9.63-.7-9.59,14.31,0,15,7.86.58,16.69-1.81,24.14-4,14.37-4.2,28.33-11.19,39.5-21.26,9.33-8.42,15-20.53,18.35-32.44,2.29-8.07,4.51-17.49,3.08-25.91-1.61-9.5-16.07-5.47-14.46,4Z" transform="translate(-134.65 -23.19)"/><path class="cls-4" d="M550.82,32.77c-3.39-1.6-7.08,2.6-12.42,7.29,4.81,17.55-.8,61.22-30,87-14.62,12.9-33.75,20.09-53.42,21.69,25.27,2,51.52-5.11,70.31-21.69C560.85,95.68,561.43,37.78,550.82,32.77Z" transform="translate(-134.65 -23.19)"/><path class="cls-1" d="M373.52,30.55c-12.82,7.78-10.93,28.88-9.11,41.33,3.1,21.2,12.56,42.05,27.41,57.6,32.35,33.88,90.61,38.25,129.18,12.64,19.23-12.77,32.28-32.5,39-54.39,4.62-15,8-34.38,2.64-49.71-2.29-6.51-7.4-12.56-15.07-10.94-7,1.47-11.63,8.28-17.11,12.29-7.62,5.58-16.87,7.23-25.32,2.48-8-4.48-14.11-11.65-22.46-15.52a31.77,31.77,0,0,0-33.64,3.81C441.13,36.4,435.73,46,424.86,47.38c-10.46,1.34-19.53-5-27.63-10.67-7.09-5-14.93-10.49-23.71-6.16s-1.07,17.22,7.57,13c-.69.33-1.15.21-.58.43,2,.76-.78-.41.49.16.6.27,1.17.61,1.73.93,3.31,1.89,6.35,4.27,9.49,6.43,7.15,4.94,15,9.23,23.67,10.53a37.83,37.83,0,0,0,29.68-8c5.75-4.61,10.21-12.08,17.21-14.9,7.55-3,14.62.76,20.56,5.25,6.92,5.22,13.24,11,21.64,13.72,9.68,3.18,20.41,1.61,29.22-3.3a61,61,0,0,0,10.32-7.63c1.18-1,2.33-2.13,3.51-3.17,1.49-1.32,2-1.1,3-2.33.26-.32-1-.2.07,0a29.82,29.82,0,0,1-3-.36c1.24.33-1.59-.4-.35-.23,1.6.22-3,0-.37-.51a6.55,6.55,0,0,1,.74,1.25c.54,1.72-.54-1.61.11.23a30,30,0,0,1,1,3.74c1,4.8,1,12.77.33,19-1.85,17.77-8.75,36.2-20.28,50-26.49,31.66-76.42,37.31-111.28,16.53-18.71-11.15-30.9-30.18-36.54-50.92a82.64,82.64,0,0,1-3.14-25.59,32.9,32.9,0,0,1,1.52-8.87c.09-.3,1-2.17.17-.55a10.79,10.79,0,0,1,.8-1.5c1.06-1.5-.91,1.31.05-.12s-.56.24.23-.23C389.33,38.5,381.8,25.53,373.52,30.55Z" transform="translate(-134.65 -23.19)"/><path class="cls-5" d="M231.77,94.8V453.74c0,14.6,24.18,26.45,54,26.45s54-11.85,54-26.45V94.8Z" transform="translate(-134.65 -23.19)"/><ellipse class="cls-6" cx="151.12" cy="71.61" rx="54.01" ry="26.45"/><path class="cls-7" d="M177.76,219.1V480.19c0,14.61,24.18,26.45,54,26.45s54-11.84,54-26.45V219.1Z" transform="translate(-134.65 -23.19)"/><path class="cls-1" d="M170.26,219.1V471.84c0,3.34-.2,6.76.12,10.09,1.89,19.8,26.62,28.17,43.13,30.72,21.57,3.33,48.12,2,66.59-11,8.21-5.8,13.17-13.48,13.17-23.6V219.1a7.6,7.6,0,0,0-7.5-7.5h-108c-9.65,0-9.67,15,0,15h108l-7.5-7.5v249c0,3.89.16,7.81,0,11.7-.1,2.74-1.41,5.11-4.22,7.62-6.87,6.15-16.76,8.79-25.61,10.38a95.12,95.12,0,0,1-34.92-.29c-8.44-1.68-18-4.36-24.43-10.45-4.11-3.9-3.83-6.26-3.83-11.49V219.1C185.26,209.44,170.26,209.43,170.26,219.1Z" transform="translate(-134.65 -23.19)"/><ellipse class="cls-2" cx="97.12" cy="195.9" rx="54.01" ry="26.45"/><path class="cls-1" d="M278.27,219.1c-.11,3.55-3.8,7.33-7.7,9.79-6.91,4.34-14.95,6.57-22.93,7.94-16.88,2.9-37.28,1.78-52.55-6.69-4.1-2.27-9.25-5.87-9.84-10.44a7.13,7.13,0,0,1,.77-3.58,16.53,16.53,0,0,1,5-5.51c13.4-10.09,33.48-11.41,49.53-10.12,9.1.73,18.64,2.71,26.8,7a27.77,27.77,0,0,1,8.56,6.27,9.06,9.06,0,0,1,2.38,5.38c.32,9.62,15.32,9.67,15,0-.66-20-24.27-29.07-40.84-32.07-21.78-3.93-48.41-2.78-67.53,9.64-6.69,4.35-12.83,10.54-14.26,18.69-1.46,8.4,2.38,16.41,8.64,21.92,16.75,14.75,43.36,17.47,64.63,15.1,18.48-2.06,48.59-10,49.36-33.28C293.59,209.44,278.59,209.45,278.27,219.1Z" transform="translate(-134.65 -23.19)"/><path class="cls-2" d="M257.74,387.78V506.64c0,14.61,24.18,26.45,54,26.45s54-11.84,54-26.45V387.78Z" transform="translate(-134.65 -23.19)"/><path class="cls-1" d="M250.24,387.78v103c0,6.71-1.06,14.7.72,21.29,5.47,20.33,33.4,26.53,51.17,28.09,20.78,1.83,49.34-1,64.35-17.55,6.81-7.51,6.77-15.59,6.77-24.88v-110a7.61,7.61,0,0,0-7.5-7.5h-108c-9.65,0-9.67,15,0,15h108l-7.5-7.5v56.94c0,20.48.9,41.18,0,61.65a6.53,6.53,0,0,1-.76,3.25c-1.45,2.93-4.22,5.1-6.95,6.82-8.84,5.56-19.73,8-30,8.81a95.13,95.13,0,0,1-35.21-3.36c-6.72-2-15.93-5.5-19.3-12.27-.87-1.77-.75-3.09-.75-5.66V387.78C265.24,378.13,250.24,378.11,250.24,387.78Z" transform="translate(-134.65 -23.19)"/><ellipse class="cls-2" cx="177.09" cy="364.59" rx="54.01" ry="26.45"/><path class="cls-1" d="M358.25,387.78c-.12,3.56-3.8,7.34-7.71,9.8-6.9,4.34-14.94,6.57-22.92,7.94-16.89,2.9-37.28,1.78-52.55-6.69-4.1-2.28-9.25-5.87-9.84-10.44a7.16,7.16,0,0,1,.76-3.59,16.52,16.52,0,0,1,5-5.5c13.4-10.1,33.48-11.42,49.52-10.12,9.1.73,18.65,2.7,26.8,7a27.81,27.81,0,0,1,8.57,6.27,9.06,9.06,0,0,1,2.38,5.37c.32,9.63,15.32,9.67,15,0-.66-20-24.27-29.06-40.84-32.06-21.78-3.94-48.41-2.79-67.54,9.64-6.69,4.35-12.83,10.54-14.25,18.69-1.47,8.4,2.38,16.4,8.63,21.91,16.76,14.75,43.37,17.47,64.64,15.1,18.48-2.06,48.59-10,49.36-33.28C373.57,378.13,358.57,378.14,358.25,387.78Z" transform="translate(-134.65 -23.19)"/><path class="cls-2" d="M142.25,475.3v44.39c0,14.61,24.18,26.45,54,26.45s54-11.84,54-26.45V475.3Z" transform="translate(-134.65 -23.19)"/><path class="cls-1" d="M134.75,475.3V511c0,4.58-.49,9.65.72,14.13,2.46,9.15,10.65,15.73,18.81,19.74,22.55,11.07,52.35,11.86,75.86,3.4,9.24-3.32,19.17-8.47,24.36-17.23,3-5,3.26-10.14,3.26-15.72v-40a7.6,7.6,0,0,0-7.5-7.5h-108c-9.65,0-9.67,15,0,15h108l-7.5-7.5v31.83c0,4.13.21,8.32,0,12.44a8,8,0,0,1-1.73,4.71c-2.31,3.13-5.83,5.28-9.22,7.05-19.11,10-45.52,9.64-65.46,2.47-5.92-2.13-14.35-6.25-16.29-12.24-.72-2.22-.31-6.64-.31-9.76V475.3C149.75,465.64,134.75,465.63,134.75,475.3Z" transform="translate(-134.65 -23.19)"/><ellipse class="cls-2" cx="61.6" cy="452.1" rx="54.01" ry="26.45"/><path class="cls-1" d="M242.76,475.3c-.12,3.55-3.8,7.33-7.71,9.79-6.9,4.34-14.94,6.57-22.92,7.94-16.89,2.9-37.28,1.78-52.55-6.69-4.1-2.27-9.25-5.87-9.84-10.44a7.11,7.11,0,0,1,.76-3.58,16.45,16.45,0,0,1,5-5.51C168.89,456.72,189,455.4,205,456.69c9.1.73,18.65,2.71,26.8,7a27.81,27.81,0,0,1,8.57,6.27,9.06,9.06,0,0,1,2.38,5.38c.32,9.62,15.32,9.67,15,0-.66-20-24.27-29.07-40.84-32.07-21.78-3.93-48.41-2.78-67.54,9.64-6.69,4.35-12.83,10.54-14.25,18.69-1.47,8.4,2.38,16.41,8.63,21.92,16.76,14.75,43.37,17.47,64.64,15.1,18.48-2.06,48.59-10,49.36-33.28C258.08,465.64,243.08,465.65,242.76,475.3Z" transform="translate(-134.65 -23.19)"/><text class="cls-8" transform="translate(255.05 352.55) scale(1.33 1)">€</text></svg>