<?xml version="1.0" ?><!DOCTYPE svg  PUBLIC '-//W3C//DTD SVG 1.1//EN'  'http://www.w3.org/Graphics/SVG/1.1/DTD/svg11.dtd'><svg enable-background="new 0 0 64 64" height="64px" id="Layer_1" version="1.1" viewBox="0 0 64 64" width="64px" xml:space="preserve" xmlns="http://www.w3.org/2000/svg" xmlns:xlink="http://www.w3.org/1999/xlink"><g id="euro"><g><g><g><g><g><g><circle cx="32" cy="32" fill="#FFFFFF" r="26.5"/></g></g></g><g><g><g><g><path d="M58,32c0-11.868-7.996-21.897-18.881-25.001C37.462,6.675,35.752,6.5,34,6.5          C19.365,6.5,7.5,18.365,7.5,33c0,7.773,3.348,14.765,8.679,19.612C20.565,55.987,26.051,58,32,58C46.337,58,58,46.337,58,32          z" fill="#FFE57F"/></g></g></g></g><g><g><g><path d="M42.852,7.825C50.99,12.349,56.5,21.029,56.5,31c0,14.635-11.865,26.5-26.5,26.5         c-3.868,0-7.539-0.836-10.852-2.325C22.955,57.291,27.336,58.5,32,58.5c14.635,0,26.5-11.865,26.5-26.5         C58.5,21.233,52.074,11.973,42.852,7.825z" fill="#FFD740"/></g></g></g><g><g><g><path d="M32,59C17.112,59,5,46.888,5,32S17.112,5,32,5s27,12.112,27,27S46.888,59,32,59z M32,6         C17.663,6,6,17.663,6,32s11.663,26,26,26s26-11.663,26-26S46.337,6,32,6z" fill="#37474F"/></g></g></g></g><g><g><g><g><circle cx="32" cy="32" fill="#FFD740" r="22.5"/></g></g></g><g><g><g><path d="M11.5,33c0-12.426,10.074-22.5,22.5-22.5c3.212,0,6.265,0.678,9.029,1.892         C39.77,10.554,36.009,9.5,32,9.5C19.574,9.5,9.5,19.574,9.5,32c0,9.214,5.541,17.129,13.471,20.608         C16.126,48.75,11.5,41.417,11.5,33z" fill="#FFCA28"/></g></g></g><g><g><g><path d="M41.029,11.392C47.874,15.25,52.5,22.583,52.5,31c0,12.426-10.074,22.5-22.5,22.5         c-3.212,0-6.265-0.678-9.029-1.892C24.23,53.446,27.991,54.5,32,54.5c12.426,0,22.5-10.074,22.5-22.5         C54.5,22.786,48.959,14.871,41.029,11.392z" fill="#FFE57F"/></g></g></g><g><g><g><path d="M32,55C19.317,55,9,44.683,9,32S19.317,9,32,9s23,10.317,23,23S44.683,55,32,55z M32,10         c-12.131,0-22,9.869-22,22s9.869,22,22,22s22-9.869,22-22S44.131,10,32,10z" fill="#37474F"/></g></g></g></g></g></g><g><g><g><g><path d="M42.076,39.043C39.972,41.75,36.693,43.75,33,43.75c-4.752,0-8.832-2.75-10.584-6.75H37.5l1-3H21.609       c-0.064-1-0.109-0.99-0.109-1.5c0-0.169,0.018-0.5,0.025-0.5H39.5l1-3H22.047c1.482-5,5.825-8.25,10.953-8.25       c3.575,0,6.77,1.508,8.879,4.068l1.453-4.287c-2.744-2.46-6.357-3.75-10.332-3.75C25.646,16.781,19.501,22,17.912,29H14.5l-1,3       h4.025c-0.006,0-0.025,0.331-0.025,0.5c0,0.507,0.028,0.5,0.076,1.5H14.5l-1,3h4.669C20.098,43,26.006,47.75,33,47.75       c5.289,0,9.953-2.778,12.751-6.822L42.076,39.043z" fill="#FFFFFF"/></g></g></g><g><g><g><path d="M19.647,36.355C21.577,42.722,27.345,47,34,47c4.723,0,9.164-2.234,11.996-6.005l-2.778-1.33       C40.924,42.425,37.587,44,34,44c-4.819,0-9.154-2.867-11.044-7.304L22.659,36h15.48l0.667-2H22.609h-0.438l-0.058-0.436       C22.036,32.973,22,32.476,22,32c0-0.12,0.008-0.237,0.016-0.355L22.048,31H40.14l0.667-2h-17.76h-0.685l0.208-0.652       C24.166,23.354,28.76,20,34,20c3.305,0,6.423,1.346,8.685,3.721l1.065-3.098C41.024,18.284,37.575,17,34,17       c-7.016,0-13.02,4.775-14.601,11.612L19.31,29h-0.397H15.86l-0.667,2h3.85l-0.03,0.741C19.006,31.827,19,31.912,19,32       c0,0.464,0.024,0.938,0.074,1.452L19.127,34h-0.551H15.86l-0.667,2h4.347L19.647,36.355z" fill="#FFE57F"/></g></g></g><g><g><g><path d="M33,48c-6.975,0-13.036-4.404-15.197-11h-4.996l1.333-4h2.895C17.011,32.657,17,32.326,17,32h-4.193       l1.333-4h3.38c1.82-7.086,8.13-12,15.48-12c3.931,0,7.719,1.455,10.666,4.097l0.247,0.221l-1.852,5.384l-0.568-0.689       C39.393,22.462,36.298,21,33,21c-4.572,0-8.606,2.785-10.246,7h18.439l-1.333,4H22c0,0.312,0.018,0.637,0.055,1h17.139       l-1.333,4H23.201c1.871,3.669,5.638,6,9.799,6c3.41,0,6.575-1.554,8.682-4.264l0.247-0.318l4.567,2.188l-0.334,0.481       C43.167,45.416,38.247,48,33,48z M14.193,36h4.347l0.107,0.355C20.577,42.722,26.345,47,33,47       c4.723,0,9.164-2.234,11.996-6.005l-2.778-1.33C39.924,42.425,36.587,44,33,44c-4.819,0-9.154-2.867-11.044-7.304L21.659,36       h15.48l0.667-2H21.171l-0.058-0.436C21.036,32.973,21,32.476,21,32c0-0.12,0.008-0.237,0.016-0.355L21.048,31H39.14l0.667-2       H21.362l0.208-0.652C23.166,23.354,27.76,20,33,20c3.305,0,6.423,1.346,8.685,3.721l1.065-3.098C40.024,18.284,36.575,17,33,17       c-7.016,0-13.02,4.775-14.601,11.612L18.31,29H14.86l-0.667,2h3.85l-0.03,0.741C18.006,31.827,18,31.912,18,32       c0,0.464,0.024,0.938,0.074,1.452L18.127,34H14.86L14.193,36z" fill="#37474F"/></g></g></g></g></g></svg>